<mxfile host="app.diagrams.net" modified="2024-04-16T01:58:53.440Z" agent="Mozilla/5.0 (Windows NT 10.0; Win64; x64) AppleWebKit/537.36 (KHTML, like Gecko) Chrome/123.0.0.0 Safari/537.36" etag="2-iaD0g_9BOsYzVdBVin" version="24.2.5" type="device" pages="4">
  <diagram id="fKWVHDQzzMQ0KdrvRlTk" name="药品查询">
    <mxGraphModel dx="954" dy="566" grid="1" gridSize="10" guides="1" tooltips="1" connect="1" arrows="1" fold="1" page="1" pageScale="1" pageWidth="827" pageHeight="1169" math="0" shadow="0">
      <root>
        <mxCell id="0" />
        <mxCell id="1" parent="0" />
        <mxCell id="HdcNPLsKrbdaQJVmTOFk-3" style="edgeStyle=orthogonalEdgeStyle;rounded=0;orthogonalLoop=1;jettySize=auto;html=1;exitX=0.5;exitY=1;exitDx=0;exitDy=0;exitPerimeter=0;entryX=0.5;entryY=0;entryDx=0;entryDy=0;startArrow=classic;startFill=1;" parent="1" source="HdcNPLsKrbdaQJVmTOFk-1" target="HdcNPLsKrbdaQJVmTOFk-2" edge="1">
          <mxGeometry relative="1" as="geometry" />
        </mxCell>
        <mxCell id="HdcNPLsKrbdaQJVmTOFk-1" value="药品信息管理" style="strokeWidth=2;html=1;shape=mxgraph.flowchart.display;whiteSpace=wrap;" parent="1" vertex="1">
          <mxGeometry x="190" y="100" width="100" height="60" as="geometry" />
        </mxCell>
        <mxCell id="HdcNPLsKrbdaQJVmTOFk-5" style="edgeStyle=orthogonalEdgeStyle;rounded=0;orthogonalLoop=1;jettySize=auto;html=1;exitX=1;exitY=0.5;exitDx=0;exitDy=0;startArrow=classic;startFill=1;" parent="1" source="HdcNPLsKrbdaQJVmTOFk-2" target="HdcNPLsKrbdaQJVmTOFk-4" edge="1">
          <mxGeometry relative="1" as="geometry" />
        </mxCell>
        <mxCell id="HdcNPLsKrbdaQJVmTOFk-2" value="药品信息管理" style="rounded=0;whiteSpace=wrap;html=1;" parent="1" vertex="1">
          <mxGeometry x="180" y="200" width="120" height="60" as="geometry" />
        </mxCell>
        <mxCell id="HdcNPLsKrbdaQJVmTOFk-4" value="药品信息表" style="strokeWidth=2;html=1;shape=mxgraph.flowchart.database;whiteSpace=wrap;" parent="1" vertex="1">
          <mxGeometry x="340" y="200" width="80" height="60" as="geometry" />
        </mxCell>
      </root>
    </mxGraphModel>
  </diagram>
  <diagram name="药品录入" id="Pqfd9QxileIUY8bt2epo">
    <mxGraphModel grid="1" page="1" gridSize="10" guides="1" tooltips="1" connect="1" arrows="1" fold="1" pageScale="1" pageWidth="827" pageHeight="1169" math="0" shadow="0">
      <root>
        <mxCell id="0" />
        <mxCell id="1" parent="0" />
        <mxCell id="7d_iXgrPsq1WFohQaCq6-7" style="edgeStyle=orthogonalEdgeStyle;rounded=0;orthogonalLoop=1;jettySize=auto;html=1;exitX=0.5;exitY=1;exitDx=0;exitDy=0;exitPerimeter=0;entryX=0.5;entryY=0;entryDx=0;entryDy=0;" edge="1" parent="1" source="7d_iXgrPsq1WFohQaCq6-2" target="7d_iXgrPsq1WFohQaCq6-5">
          <mxGeometry relative="1" as="geometry" />
        </mxCell>
        <mxCell id="7d_iXgrPsq1WFohQaCq6-2" value="药品信息录入" style="strokeWidth=2;html=1;shape=mxgraph.flowchart.display;whiteSpace=wrap;" vertex="1" parent="1">
          <mxGeometry x="190" y="180" width="100" height="60" as="geometry" />
        </mxCell>
        <mxCell id="7d_iXgrPsq1WFohQaCq6-4" value="药品信息表" style="strokeWidth=2;html=1;shape=mxgraph.flowchart.database;whiteSpace=wrap;" vertex="1" parent="1">
          <mxGeometry x="340" y="280" width="80" height="60" as="geometry" />
        </mxCell>
        <mxCell id="7d_iXgrPsq1WFohQaCq6-6" style="edgeStyle=orthogonalEdgeStyle;rounded=0;orthogonalLoop=1;jettySize=auto;html=1;exitX=1;exitY=0.5;exitDx=0;exitDy=0;startArrow=classic;startFill=1;" edge="1" parent="1" source="7d_iXgrPsq1WFohQaCq6-5" target="7d_iXgrPsq1WFohQaCq6-4">
          <mxGeometry relative="1" as="geometry" />
        </mxCell>
        <mxCell id="7d_iXgrPsq1WFohQaCq6-5" value="药品信息录入程序" style="rounded=0;whiteSpace=wrap;html=1;" vertex="1" parent="1">
          <mxGeometry x="180" y="280" width="120" height="60" as="geometry" />
        </mxCell>
        <mxCell id="7d_iXgrPsq1WFohQaCq6-8" value="结束" style="strokeWidth=2;html=1;shape=mxgraph.flowchart.terminator;whiteSpace=wrap;" vertex="1" parent="1">
          <mxGeometry x="190" y="480" width="100" height="60" as="geometry" />
        </mxCell>
        <mxCell id="7d_iXgrPsq1WFohQaCq6-9" style="edgeStyle=orthogonalEdgeStyle;rounded=0;orthogonalLoop=1;jettySize=auto;html=1;exitX=0.5;exitY=1;exitDx=0;exitDy=0;entryX=0.5;entryY=0;entryDx=0;entryDy=0;entryPerimeter=0;" edge="1" parent="1" source="V52AUO58v3xbYSv-VtMQ-1" target="7d_iXgrPsq1WFohQaCq6-8">
          <mxGeometry relative="1" as="geometry" />
        </mxCell>
        <mxCell id="V52AUO58v3xbYSv-VtMQ-2" value="" style="edgeStyle=orthogonalEdgeStyle;rounded=0;orthogonalLoop=1;jettySize=auto;html=1;exitX=0.5;exitY=1;exitDx=0;exitDy=0;entryX=0.5;entryY=0;entryDx=0;entryDy=0;entryPerimeter=0;" edge="1" parent="1" source="7d_iXgrPsq1WFohQaCq6-5" target="V52AUO58v3xbYSv-VtMQ-1">
          <mxGeometry relative="1" as="geometry">
            <mxPoint x="240" y="340" as="sourcePoint" />
            <mxPoint x="240" y="410" as="targetPoint" />
          </mxGeometry>
        </mxCell>
        <mxCell id="V52AUO58v3xbYSv-VtMQ-1" value="显示结果" style="strokeWidth=2;html=1;shape=mxgraph.flowchart.display;whiteSpace=wrap;" vertex="1" parent="1">
          <mxGeometry x="190" y="380" width="100" height="60" as="geometry" />
        </mxCell>
      </root>
    </mxGraphModel>
  </diagram>
  <diagram id="jM8Lm_iYnlT_eMdCaXTm" name="药品删除">
    <mxGraphModel grid="1" page="1" gridSize="10" guides="1" tooltips="1" connect="1" arrows="1" fold="1" pageScale="1" pageWidth="827" pageHeight="1169" math="0" shadow="0">
      <root>
        <mxCell id="0" />
        <mxCell id="1" parent="0" />
        <mxCell id="QtkxQfQ2ZA14hYNgmg3s-5" style="edgeStyle=orthogonalEdgeStyle;rounded=0;orthogonalLoop=1;jettySize=auto;html=1;exitX=0.5;exitY=1;exitDx=0;exitDy=0;exitPerimeter=0;entryX=0.5;entryY=0;entryDx=0;entryDy=0;" edge="1" parent="1" source="QtkxQfQ2ZA14hYNgmg3s-1" target="QtkxQfQ2ZA14hYNgmg3s-2">
          <mxGeometry relative="1" as="geometry" />
        </mxCell>
        <mxCell id="QtkxQfQ2ZA14hYNgmg3s-1" value="药品信息删除" style="strokeWidth=2;html=1;shape=mxgraph.flowchart.display;whiteSpace=wrap;" vertex="1" parent="1">
          <mxGeometry x="180" y="100" width="100" height="60" as="geometry" />
        </mxCell>
        <mxCell id="QtkxQfQ2ZA14hYNgmg3s-6" style="edgeStyle=orthogonalEdgeStyle;rounded=0;orthogonalLoop=1;jettySize=auto;html=1;exitX=0.5;exitY=1;exitDx=0;exitDy=0;entryX=0.5;entryY=0;entryDx=0;entryDy=0;entryPerimeter=0;" edge="1" parent="1" source="QtkxQfQ2ZA14hYNgmg3s-2" target="QtkxQfQ2ZA14hYNgmg3s-8">
          <mxGeometry relative="1" as="geometry">
            <mxPoint x="230" y="340" as="targetPoint" />
          </mxGeometry>
        </mxCell>
        <mxCell id="QtkxQfQ2ZA14hYNgmg3s-2" value="药品信息查询程序" style="rounded=0;whiteSpace=wrap;html=1;" vertex="1" parent="1">
          <mxGeometry x="170" y="200" width="120" height="60" as="geometry" />
        </mxCell>
        <mxCell id="QtkxQfQ2ZA14hYNgmg3s-4" style="edgeStyle=orthogonalEdgeStyle;rounded=0;orthogonalLoop=1;jettySize=auto;html=1;exitX=0;exitY=0.5;exitDx=0;exitDy=0;exitPerimeter=0;entryX=1;entryY=0.5;entryDx=0;entryDy=0;startArrow=classic;startFill=1;" edge="1" parent="1" source="QtkxQfQ2ZA14hYNgmg3s-3" target="QtkxQfQ2ZA14hYNgmg3s-2">
          <mxGeometry relative="1" as="geometry" />
        </mxCell>
        <mxCell id="QtkxQfQ2ZA14hYNgmg3s-3" value="药品信息表" style="strokeWidth=2;html=1;shape=mxgraph.flowchart.database;whiteSpace=wrap;" vertex="1" parent="1">
          <mxGeometry x="330" y="200" width="76" height="60" as="geometry" />
        </mxCell>
        <mxCell id="QtkxQfQ2ZA14hYNgmg3s-9" style="edgeStyle=orthogonalEdgeStyle;rounded=0;orthogonalLoop=1;jettySize=auto;html=1;exitX=0.5;exitY=1;exitDx=0;exitDy=0;exitPerimeter=0;entryX=0.5;entryY=0;entryDx=0;entryDy=0;" edge="1" parent="1" source="QtkxQfQ2ZA14hYNgmg3s-8" target="QtkxQfQ2ZA14hYNgmg3s-10">
          <mxGeometry relative="1" as="geometry">
            <mxPoint x="230" y="470" as="targetPoint" />
          </mxGeometry>
        </mxCell>
        <mxCell id="QtkxQfQ2ZA14hYNgmg3s-8" value="药品信息" style="strokeWidth=2;html=1;shape=mxgraph.flowchart.display;whiteSpace=wrap;" vertex="1" parent="1">
          <mxGeometry x="180" y="300" width="100" height="60" as="geometry" />
        </mxCell>
        <mxCell id="QtkxQfQ2ZA14hYNgmg3s-10" value="药品删除" style="rounded=0;whiteSpace=wrap;html=1;" vertex="1" parent="1">
          <mxGeometry x="170" y="400" width="120" height="60" as="geometry" />
        </mxCell>
        <mxCell id="QtkxQfQ2ZA14hYNgmg3s-11" value="显示结果" style="strokeWidth=2;html=1;shape=mxgraph.flowchart.display;whiteSpace=wrap;" vertex="1" parent="1">
          <mxGeometry x="180" y="500" width="100" height="60" as="geometry" />
        </mxCell>
        <mxCell id="QtkxQfQ2ZA14hYNgmg3s-12" style="edgeStyle=orthogonalEdgeStyle;rounded=0;orthogonalLoop=1;jettySize=auto;html=1;exitX=0.5;exitY=1;exitDx=0;exitDy=0;entryX=0.5;entryY=0;entryDx=0;entryDy=0;entryPerimeter=0;" edge="1" parent="1" source="QtkxQfQ2ZA14hYNgmg3s-10" target="QtkxQfQ2ZA14hYNgmg3s-11">
          <mxGeometry relative="1" as="geometry" />
        </mxCell>
        <mxCell id="QtkxQfQ2ZA14hYNgmg3s-13" style="edgeStyle=orthogonalEdgeStyle;rounded=0;orthogonalLoop=1;jettySize=auto;html=1;exitX=1;exitY=0.5;exitDx=0;exitDy=0;entryX=0.5;entryY=1;entryDx=0;entryDy=0;entryPerimeter=0;startArrow=classic;startFill=1;" edge="1" parent="1" source="QtkxQfQ2ZA14hYNgmg3s-10" target="QtkxQfQ2ZA14hYNgmg3s-3">
          <mxGeometry relative="1" as="geometry" />
        </mxCell>
        <mxCell id="ecGSX0yCznHZLS_jeiht-1" value="结束" style="strokeWidth=2;html=1;shape=mxgraph.flowchart.terminator;whiteSpace=wrap;" vertex="1" parent="1">
          <mxGeometry x="180" y="600" width="100" height="60" as="geometry" />
        </mxCell>
        <mxCell id="ecGSX0yCznHZLS_jeiht-2" style="edgeStyle=orthogonalEdgeStyle;rounded=0;orthogonalLoop=1;jettySize=auto;html=1;exitX=0.5;exitY=1;exitDx=0;exitDy=0;exitPerimeter=0;entryX=0.5;entryY=0;entryDx=0;entryDy=0;entryPerimeter=0;" edge="1" parent="1" source="QtkxQfQ2ZA14hYNgmg3s-11" target="ecGSX0yCznHZLS_jeiht-1">
          <mxGeometry relative="1" as="geometry" />
        </mxCell>
      </root>
    </mxGraphModel>
  </diagram>
  <diagram id="LFwAST8OmH7SbaW8UDV-" name="药品更新">
    <mxGraphModel grid="1" page="1" gridSize="10" guides="1" tooltips="1" connect="1" arrows="1" fold="1" pageScale="1" pageWidth="827" pageHeight="1169" math="0" shadow="0">
      <root>
        <mxCell id="0" />
        <mxCell id="1" parent="0" />
        <mxCell id="3mlIX3-WM-JeHkpjDPVW-1" style="edgeStyle=orthogonalEdgeStyle;rounded=0;orthogonalLoop=1;jettySize=auto;html=1;exitX=0.5;exitY=1;exitDx=0;exitDy=0;exitPerimeter=0;entryX=0.5;entryY=0;entryDx=0;entryDy=0;" edge="1" parent="1" source="3mlIX3-WM-JeHkpjDPVW-2" target="3mlIX3-WM-JeHkpjDPVW-5">
          <mxGeometry relative="1" as="geometry" />
        </mxCell>
        <mxCell id="3mlIX3-WM-JeHkpjDPVW-2" value="药品信息更新" style="strokeWidth=2;html=1;shape=mxgraph.flowchart.display;whiteSpace=wrap;" vertex="1" parent="1">
          <mxGeometry x="190" y="100" width="100" height="60" as="geometry" />
        </mxCell>
        <mxCell id="3mlIX3-WM-JeHkpjDPVW-3" style="edgeStyle=orthogonalEdgeStyle;rounded=0;orthogonalLoop=1;jettySize=auto;html=1;exitX=1;exitY=0.5;exitDx=0;exitDy=0;startArrow=classic;startFill=1;" edge="1" parent="1" source="3mlIX3-WM-JeHkpjDPVW-5" target="3mlIX3-WM-JeHkpjDPVW-6">
          <mxGeometry relative="1" as="geometry" />
        </mxCell>
        <mxCell id="3mlIX3-WM-JeHkpjDPVW-4" style="edgeStyle=orthogonalEdgeStyle;rounded=0;orthogonalLoop=1;jettySize=auto;html=1;exitX=0.5;exitY=1;exitDx=0;exitDy=0;entryX=0.5;entryY=0;entryDx=0;entryDy=0;entryPerimeter=0;" edge="1" parent="1" source="3mlIX3-WM-JeHkpjDPVW-5" target="3mlIX3-WM-JeHkpjDPVW-8">
          <mxGeometry relative="1" as="geometry">
            <mxPoint x="240" y="350" as="targetPoint" />
          </mxGeometry>
        </mxCell>
        <mxCell id="3mlIX3-WM-JeHkpjDPVW-5" value="药品信息查询" style="rounded=0;whiteSpace=wrap;html=1;" vertex="1" parent="1">
          <mxGeometry x="180" y="200" width="120" height="60" as="geometry" />
        </mxCell>
        <mxCell id="3mlIX3-WM-JeHkpjDPVW-6" value="药品信息表" style="strokeWidth=2;html=1;shape=mxgraph.flowchart.database;whiteSpace=wrap;" vertex="1" parent="1">
          <mxGeometry x="340" y="200" width="80" height="60" as="geometry" />
        </mxCell>
        <mxCell id="3mlIX3-WM-JeHkpjDPVW-7" style="edgeStyle=orthogonalEdgeStyle;rounded=0;orthogonalLoop=1;jettySize=auto;html=1;exitX=0.5;exitY=1;exitDx=0;exitDy=0;exitPerimeter=0;entryX=0.5;entryY=0;entryDx=0;entryDy=0;" edge="1" parent="1" source="3mlIX3-WM-JeHkpjDPVW-8" target="3mlIX3-WM-JeHkpjDPVW-10">
          <mxGeometry relative="1" as="geometry">
            <mxPoint x="240" y="400" as="targetPoint" />
          </mxGeometry>
        </mxCell>
        <mxCell id="3mlIX3-WM-JeHkpjDPVW-8" value="药品信息" style="strokeWidth=2;html=1;shape=mxgraph.flowchart.display;whiteSpace=wrap;" vertex="1" parent="1">
          <mxGeometry x="190" y="300" width="100" height="60" as="geometry" />
        </mxCell>
        <mxCell id="3mlIX3-WM-JeHkpjDPVW-21" style="edgeStyle=orthogonalEdgeStyle;rounded=0;orthogonalLoop=1;jettySize=auto;html=1;exitX=1;exitY=0.5;exitDx=0;exitDy=0;" edge="1" parent="1" source="3mlIX3-WM-JeHkpjDPVW-10" target="3mlIX3-WM-JeHkpjDPVW-6">
          <mxGeometry relative="1" as="geometry" />
        </mxCell>
        <mxCell id="3mlIX3-WM-JeHkpjDPVW-10" value="药品信息更新" style="rounded=0;whiteSpace=wrap;html=1;" vertex="1" parent="1">
          <mxGeometry x="180" y="400" width="120" height="60" as="geometry" />
        </mxCell>
        <mxCell id="3mlIX3-WM-JeHkpjDPVW-17" style="edgeStyle=orthogonalEdgeStyle;rounded=0;orthogonalLoop=1;jettySize=auto;html=1;exitX=0.5;exitY=1;exitDx=0;exitDy=0;exitPerimeter=0;entryX=0.5;entryY=0;entryDx=0;entryDy=0;entryPerimeter=0;" edge="1" parent="1" source="3mlIX3-WM-JeHkpjDPVW-12" target="3mlIX3-WM-JeHkpjDPVW-18">
          <mxGeometry relative="1" as="geometry">
            <mxPoint x="240" y="670" as="targetPoint" />
          </mxGeometry>
        </mxCell>
        <mxCell id="3mlIX3-WM-JeHkpjDPVW-19" value="成功" style="edgeLabel;html=1;align=center;verticalAlign=middle;resizable=0;points=[];" connectable="0" vertex="1" parent="3mlIX3-WM-JeHkpjDPVW-17">
          <mxGeometry x="-0.1" y="1" relative="1" as="geometry">
            <mxPoint as="offset" />
          </mxGeometry>
        </mxCell>
        <mxCell id="3mlIX3-WM-JeHkpjDPVW-23" style="edgeStyle=orthogonalEdgeStyle;rounded=0;orthogonalLoop=1;jettySize=auto;html=1;exitX=0;exitY=0.5;exitDx=0;exitDy=0;exitPerimeter=0;entryX=0;entryY=0.5;entryDx=0;entryDy=0;" edge="1" parent="1" source="3mlIX3-WM-JeHkpjDPVW-12" target="3mlIX3-WM-JeHkpjDPVW-10">
          <mxGeometry relative="1" as="geometry" />
        </mxCell>
        <mxCell id="3mlIX3-WM-JeHkpjDPVW-24" value="失败" style="edgeLabel;html=1;align=center;verticalAlign=middle;resizable=0;points=[];" connectable="0" vertex="1" parent="3mlIX3-WM-JeHkpjDPVW-23">
          <mxGeometry x="-0.1176" relative="1" as="geometry">
            <mxPoint as="offset" />
          </mxGeometry>
        </mxCell>
        <mxCell id="3mlIX3-WM-JeHkpjDPVW-12" value="成功？" style="strokeWidth=2;html=1;shape=mxgraph.flowchart.decision;whiteSpace=wrap;" vertex="1" parent="1">
          <mxGeometry x="190" y="500" width="100" height="100" as="geometry" />
        </mxCell>
        <mxCell id="3mlIX3-WM-JeHkpjDPVW-14" style="edgeStyle=orthogonalEdgeStyle;rounded=0;orthogonalLoop=1;jettySize=auto;html=1;exitX=0.5;exitY=1;exitDx=0;exitDy=0;entryX=0.5;entryY=0;entryDx=0;entryDy=0;entryPerimeter=0;" edge="1" parent="1" source="3mlIX3-WM-JeHkpjDPVW-10" target="3mlIX3-WM-JeHkpjDPVW-12">
          <mxGeometry relative="1" as="geometry" />
        </mxCell>
        <mxCell id="3mlIX3-WM-JeHkpjDPVW-18" value="显示结果" style="strokeWidth=2;html=1;shape=mxgraph.flowchart.display;whiteSpace=wrap;" vertex="1" parent="1">
          <mxGeometry x="190" y="640" width="100" height="60" as="geometry" />
        </mxCell>
        <mxCell id="3mlIX3-WM-JeHkpjDPVW-25" value="结束" style="strokeWidth=2;html=1;shape=mxgraph.flowchart.terminator;whiteSpace=wrap;" vertex="1" parent="1">
          <mxGeometry x="190" y="740" width="100" height="60" as="geometry" />
        </mxCell>
        <mxCell id="3mlIX3-WM-JeHkpjDPVW-26" style="edgeStyle=orthogonalEdgeStyle;rounded=0;orthogonalLoop=1;jettySize=auto;html=1;exitX=0.5;exitY=1;exitDx=0;exitDy=0;exitPerimeter=0;entryX=0.5;entryY=0;entryDx=0;entryDy=0;entryPerimeter=0;" edge="1" parent="1" source="3mlIX3-WM-JeHkpjDPVW-18" target="3mlIX3-WM-JeHkpjDPVW-25">
          <mxGeometry relative="1" as="geometry" />
        </mxCell>
      </root>
    </mxGraphModel>
  </diagram>
</mxfile>
